<?xml version="1.0" encoding="utf-8"?>
<!-- Generator: Adobe Illustrator 23.0.1, SVG Export Plug-In . SVG Version: 6.00 Build 0)  -->
<svg version="1.1" xmlns="http://www.w3.org/2000/svg" xmlns:xlink="http://www.w3.org/1999/xlink" x="0px" y="0px"
	 viewBox="0 0 1024 1094" style="enable-background:new 0 0 1024 1094;" xml:space="preserve">
<style type="text/css">
	.st0{fill:#1D1F25;}
	.st1{fill:#E0ECDE;}
	.st2{opacity:0;fill:#FFFFFF;}
	.st3{fill:#606163;}
	.st4{fill:#278FCC;}
</style>
<g id="Layer_1">
	<rect x="1" y="1024" class="st0" width="1024" height="70"/>
	<g>
		<g>
			<g>
				<path class="st1" d="M279.12,1043.44h5.2c4.09,0,7.46,1.08,10.11,3.2c2.67,2.14,4,5.19,4,9.15c0,4.08-1.32,7.2-3.96,9.36
					c-2.65,2.17-6.06,3.24-10.24,3.24h-5.1V1043.44z M282.25,1065.56h1.1c1.62,0,3.16-0.16,4.6-0.48c1.45-0.33,2.71-0.86,3.79-1.62
					c1.07-0.78,1.94-1.77,2.58-2.99c0.64-1.22,0.97-2.74,0.97-4.55c0-1.79-0.32-3.32-0.95-4.59c-0.63-1.28-1.51-2.26-2.66-2.97
					c-1.13-0.72-2.38-1.25-3.75-1.58c-1.37-0.35-2.9-0.5-4.59-0.5h-1.1V1065.56z"/>
				<path class="st1" d="M303.03,1061.16c0.04,1.38,0.49,2.59,1.33,3.61c0.87,1.02,1.99,1.51,3.36,1.51c1.09,0,1.98-0.25,2.69-0.75
					c0.7-0.51,1.36-1.25,1.98-2.26l2.54,1.43c-0.73,1.32-1.75,2.35-3.03,3.12c-1.28,0.74-2.68,1.11-4.21,1.11
					c-2.34,0-4.2-0.76-5.6-2.31c-1.38-1.59-2.07-3.51-2.07-5.83c0-2.43,0.66-4.45,1.98-6.01c1.29-1.56,3.17-2.31,5.64-2.31
					c2.41,0,4.21,0.75,5.44,2.31c1.24,1.54,1.87,3.52,1.87,5.93v0.46H303.03z M311.93,1058.91c-0.19-1.2-0.63-2.15-1.39-2.83
					c-0.75-0.7-1.72-1.05-2.92-1.05c-0.57,0-1.12,0.08-1.62,0.27c-0.5,0.2-0.94,0.48-1.33,0.82c-0.38,0.36-0.71,0.77-0.98,1.25
					c-0.25,0.49-0.42,0.99-0.5,1.55H311.93z"/>
				<path class="st1" d="M323.78,1056.46c-0.45-0.92-1.11-1.37-2-1.37c-0.42,0-0.8,0.15-1.13,0.45c-0.34,0.3-0.5,0.67-0.5,1.08
					c0,0.4,0.13,0.75,0.38,1.02c0.25,0.28,0.6,0.53,1.05,0.78c0.29,0.13,0.51,0.25,0.67,0.3c0.15,0.09,0.4,0.21,0.77,0.37
					c0.17,0.07,0.33,0.16,0.46,0.2c0.13,0.04,0.23,0.08,0.3,0.13c1.1,0.51,1.99,1.09,2.64,1.76c0.64,0.65,0.97,1.55,0.97,2.64
					c0,1.46-0.54,2.69-1.6,3.67c-1.04,0.98-2.31,1.46-3.77,1.46c-0.61,0-1.19-0.08-1.74-0.25c-0.55-0.15-1.07-0.39-1.56-0.69
					c-0.48-0.3-0.89-0.66-1.26-1.09c-0.37-0.44-0.65-0.92-0.85-1.43l2.57-1.15c0.73,1.32,1.68,1.97,2.84,1.97
					c0.47,0,0.9-0.12,1.29-0.38c0.41-0.25,0.71-0.57,0.89-0.95c0.19-0.4,0.23-0.81,0.12-1.28c-0.11-0.43-0.45-0.87-1.03-1.27
					l-2.95-1.55c-0.5-0.26-0.95-0.53-1.33-0.8c-0.38-0.27-0.69-0.55-0.93-0.84c-0.25-0.3-0.43-0.63-0.56-0.98
					c-0.12-0.38-0.18-0.79-0.18-1.28c0-1.26,0.44-2.32,1.34-3.19c0.89-0.88,1.97-1.31,3.26-1.31c1.96,0,3.38,0.88,4.27,2.71
					L323.78,1056.46z"/>
				<path class="st1" d="M334.54,1045.83c0,0.55-0.2,1.03-0.6,1.42c-0.4,0.4-0.89,0.6-1.46,0.6c-0.58,0-1.07-0.19-1.47-0.6
					c-0.4-0.39-0.6-0.87-0.6-1.42c0-0.58,0.2-1.07,0.6-1.48c0.4-0.41,0.89-0.6,1.47-0.6c0.57,0,1.06,0.19,1.46,0.6
					C334.34,1044.76,334.54,1045.24,334.54,1045.83z M333.98,1068.4h-3.01v-15.49h3.01V1068.4z"/>
				<path class="st1" d="M353.39,1068.12c0,2.9-0.55,5.17-1.67,6.79c-1.12,1.58-3.1,2.37-5.94,2.37c-2.2,0-4-0.63-5.4-1.88
					c-1.38-1.25-2.09-2.96-2.13-5.13h2.99c0,1.39,0.44,2.46,1.28,3.24c0.87,0.75,2,1.13,3.4,1.13c1.71,0,2.88-0.49,3.52-1.5
					c0.63-1,0.94-2.38,0.94-4.2v-2.95h-0.07c-0.62,0.95-1.39,1.67-2.31,2.18c-0.92,0.52-1.91,0.77-2.98,0.77
					c-2.32,0-4.15-0.8-5.48-2.41c-1.33-1.62-1.98-3.59-1.98-5.96c0-2.24,0.67-4.12,2.02-5.69c1.36-1.62,3.13-2.41,5.31-2.41
					c2.28,0,4.11,1.04,5.42,3.08h0.07v-2.63h3V1068.12z M345.49,1066.28c1.57,0,2.8-0.54,3.69-1.61c0.91-1.11,1.37-2.45,1.37-4.01
					c0-1.55-0.46-2.86-1.37-3.95c-0.88-1.07-2.12-1.62-3.69-1.62c-1.5,0-2.7,0.55-3.61,1.67c-0.89,1.08-1.34,2.38-1.34,3.9
					c0,1.56,0.45,2.88,1.34,3.97C342.8,1065.74,344,1066.28,345.49,1066.28z"/>
				<path class="st1" d="M360.29,1054.99h0.07c0.43-0.83,1.09-1.44,1.93-1.88c0.85-0.45,1.77-0.65,2.77-0.65
					c1.02,0,1.88,0.14,2.6,0.45c0.7,0.3,1.28,0.74,1.71,1.32c0.44,0.58,0.75,1.27,0.94,2.1c0.19,0.82,0.28,1.78,0.28,2.82v9.24h-3
					v-8.87c0-1.53-0.23-2.64-0.66-3.34c-0.45-0.73-1.37-1.1-2.77-1.1c-0.52,0-0.95,0.05-1.3,0.15c-0.36,0.09-0.67,0.23-0.94,0.42
					c-0.27,0.19-0.49,0.41-0.67,0.65c-0.17,0.25-0.35,0.51-0.5,0.81c-0.07,0.14-0.13,0.35-0.19,0.59c-0.05,0.24-0.1,0.49-0.14,0.73
					c-0.05,0.26-0.09,0.51-0.1,0.77c-0.02,0.26-0.03,0.46-0.03,0.61v1.45v7.12h-3v-15.49h3V1054.99z"/>
				<path class="st1" d="M384.14,1039.67h3v15.82h0.07c1.38-2.03,3.19-3.03,5.44-3.03c2.17,0,3.95,0.8,5.31,2.41
					c1.35,1.56,2.03,3.45,2.03,5.69c0,2.37-0.67,4.34-2,5.96c-1.34,1.61-3.17,2.41-5.47,2.41c-1.06,0-2.06-0.25-2.99-0.77
					c-0.92-0.51-1.69-1.23-2.31-2.18h-0.07v2.42h-3V1039.67z M391.91,1066.28c1.58,0,2.81-0.54,3.7-1.61
					c0.91-1.11,1.36-2.45,1.36-4.01c0-1.55-0.45-2.86-1.36-3.95c-0.89-1.07-2.12-1.62-3.7-1.62c-1.49,0-2.7,0.55-3.61,1.67
					c-0.89,1.08-1.34,2.38-1.34,3.9c0,1.56,0.45,2.88,1.34,3.97C389.21,1065.74,390.42,1066.28,391.91,1066.28z"/>
				<path class="st1" d="M400.41,1052.91h3.5l5.27,9.83l4.91-9.83h3.37l-12.65,24.37h-3.4l6.15-11.53L400.41,1052.91z"/>
				<path class="st1" d="M432.59,1062.13l-2.87,6.26h-3.37l12-26.01l12.01,26.01h-3.37l-2.88-6.26H432.59z M438.36,1049.2
					l-4.47,10.11h8.94L438.36,1049.2z"/>
				<path class="st1" d="M455.26,1068.4h-3v-28.73h3V1068.4z"/>
				<path class="st1" d="M462.66,1068.4h-2.99v-28.73h2.99V1068.4z"/>
				<path class="st1" d="M474.07,1056.56v2.47h-7.29v-2.47H474.07z"/>
				<path class="st1" d="M485.75,1042.68c-0.94-0.43-1.61-0.62-2-0.62c-0.64,0-1.12,0.18-1.4,0.6c-0.29,0.4-0.48,0.9-0.6,1.5
					c-0.06,0.45-0.1,0.79-0.12,1.05c-0.01,0.24-0.02,0.6-0.02,1.03v6.66h4.14v2.78h-4.14v12.71h-2.99v-12.71h-1.37v-2.78h1.37v-7.55
					c0-4.06,1.67-6.09,5.03-6.09c0.74,0,1.43,0.13,2.11,0.4V1042.68z"/>
				<path class="st1" d="M490.39,1055.43h0.09c0.39-0.93,0.94-1.66,1.68-2.18c0.74-0.55,1.6-0.79,2.59-0.79
					c0.83,0,1.65,0.24,2.47,0.75l-1.37,2.72c-0.48-0.42-1.1-0.63-1.83-0.63c-1.53,0-2.56,0.62-3.07,1.84
					c-0.22,0.58-0.38,1.17-0.46,1.72c-0.07,0.55-0.11,1.2-0.11,1.92v7.62h-3v-15.49h3V1055.43z"/>
				<path class="st1" d="M500.69,1061.16c0.05,1.38,0.48,2.59,1.33,3.61c0.88,1.02,1.99,1.51,3.37,1.51c1.09,0,1.99-0.25,2.69-0.75
					c0.7-0.51,1.36-1.25,1.98-2.26l2.53,1.43c-0.73,1.32-1.73,2.35-3.02,3.12c-1.27,0.74-2.68,1.11-4.22,1.11
					c-2.32,0-4.2-0.76-5.6-2.31c-1.37-1.59-2.07-3.51-2.07-5.83c0-2.43,0.65-4.45,1.98-6.01c1.28-1.56,3.16-2.31,5.62-2.31
					c2.42,0,4.23,0.75,5.45,2.31c1.25,1.54,1.86,3.52,1.86,5.93v0.46H500.69z M509.59,1058.91c-0.18-1.2-0.64-2.15-1.39-2.83
					c-0.74-0.7-1.72-1.05-2.92-1.05c-0.57,0-1.12,0.08-1.61,0.27c-0.5,0.2-0.95,0.48-1.34,0.82c-0.39,0.36-0.71,0.77-0.97,1.25
					c-0.24,0.49-0.43,0.99-0.52,1.55H509.59z"/>
				<path class="st1" d="M516.96,1061.16c0.05,1.38,0.5,2.59,1.34,3.61c0.86,1.02,1.98,1.51,3.36,1.51c1.1,0,1.99-0.25,2.69-0.75
					c0.7-0.51,1.37-1.25,1.98-2.26l2.53,1.43c-0.73,1.32-1.73,2.35-3,3.12c-1.28,0.74-2.69,1.11-4.23,1.11
					c-2.33,0-4.2-0.76-5.6-2.31c-1.38-1.59-2.07-3.51-2.07-5.83c0-2.43,0.65-4.45,1.97-6.01c1.29-1.56,3.16-2.31,5.65-2.31
					c2.39,0,4.21,0.75,5.42,2.31c1.25,1.54,1.86,3.52,1.86,5.93v0.46H516.96z M525.88,1058.91c-0.18-1.2-0.65-2.15-1.39-2.83
					c-0.75-0.7-1.73-1.05-2.91-1.05c-0.59,0-1.13,0.08-1.63,0.27c-0.5,0.2-0.95,0.48-1.33,0.82c-0.39,0.36-0.73,0.77-0.97,1.25
					c-0.26,0.49-0.43,0.99-0.52,1.55H525.88z"/>
				<path class="st1" d="M538.57,1056.56v2.47h-7.29v-2.47H538.57z"/>
				<path class="st1" d="M554.15,1065.98h-0.05c-0.63,0.95-1.4,1.67-2.33,2.18c-0.92,0.52-1.92,0.77-2.98,0.77
					c-2.33,0-4.14-0.8-5.47-2.41c-1.34-1.62-2-3.59-2-5.96c0-2.24,0.67-4.12,2.03-5.69c1.36-1.62,3.12-2.41,5.31-2.41
					c2.24,0,4.05,1,5.44,3.03h0.05v-15.82h3v28.73h-3V1065.98z M549.24,1066.28c1.59,0,2.83-0.54,3.71-1.61
					c0.9-1.11,1.37-2.45,1.37-4.01c0-1.55-0.46-2.86-1.37-3.95c-0.88-1.07-2.12-1.62-3.71-1.62c-1.48,0-2.68,0.55-3.59,1.67
					c-0.89,1.08-1.34,2.38-1.34,3.9c0,1.56,0.45,2.88,1.34,3.97C546.56,1065.74,547.76,1066.28,549.24,1066.28z"/>
				<path class="st1" d="M562.05,1054.83c1.62-1.58,3.61-2.37,5.94-2.37c2.33,0,4.31,0.79,5.9,2.37c1.63,1.59,2.44,3.55,2.44,5.87
					s-0.81,4.27-2.44,5.86c-1.58,1.59-3.57,2.37-5.9,2.37c-2.34,0-4.32-0.78-5.94-2.37c-1.59-1.59-2.39-3.54-2.39-5.86
					S560.46,1056.42,562.05,1054.83z M562.65,1060.7c0,1.43,0.53,2.7,1.58,3.81c1.02,1.06,2.28,1.58,3.77,1.58
					c1.45,0,2.72-0.53,3.76-1.58c1.05-1.1,1.58-2.37,1.58-3.81c0-1.46-0.52-2.73-1.58-3.81c-1.04-1.07-2.31-1.59-3.76-1.59
					c-1.49,0-2.75,0.52-3.77,1.59C563.18,1057.97,562.65,1059.24,562.65,1060.7z"/>
				<path class="st1" d="M584.4,1062.78l4.6-10.73l4.57,10.73l4.53-9.86h3.41l-7.94,16.02l-4.57-10.35l-4.6,10.35l-7.93-16.02h3.4
					L584.4,1062.78z"/>
				<path class="st1" d="M606.01,1054.99h0.06c0.44-0.83,1.1-1.44,1.95-1.88c0.83-0.45,1.77-0.65,2.76-0.65
					c1.03,0,1.89,0.14,2.6,0.45c0.71,0.3,1.29,0.74,1.71,1.32c0.46,0.58,0.76,1.27,0.95,2.1c0.19,0.82,0.27,1.78,0.27,2.82v9.24h-3
					v-8.87c0-1.53-0.21-2.64-0.66-3.34c-0.46-0.73-1.37-1.1-2.78-1.1c-0.51,0-0.94,0.05-1.31,0.15c-0.34,0.09-0.66,0.23-0.92,0.42
					c-0.27,0.19-0.5,0.41-0.67,0.65c-0.18,0.25-0.33,0.51-0.5,0.81c-0.05,0.14-0.12,0.35-0.17,0.59c-0.06,0.24-0.1,0.49-0.16,0.73
					c-0.03,0.26-0.07,0.51-0.1,0.77c-0.01,0.26-0.03,0.46-0.03,0.61v1.45v7.12h-3v-15.49h3V1054.99z"/>
				<path class="st1" d="M623.58,1068.4h-3v-28.73h3V1068.4z"/>
				<path class="st1" d="M628.85,1054.83c1.63-1.58,3.61-2.37,5.94-2.37c2.32,0,4.3,0.79,5.9,2.37c1.62,1.59,2.43,3.55,2.43,5.87
					s-0.81,4.27-2.43,5.86c-1.6,1.59-3.58,2.37-5.9,2.37c-2.33,0-4.31-0.78-5.94-2.37c-1.61-1.59-2.4-3.54-2.4-5.86
					S627.25,1056.42,628.85,1054.83z M629.46,1060.7c0,1.43,0.52,2.7,1.57,3.81c1.02,1.06,2.28,1.58,3.77,1.58
					c1.47,0,2.72-0.53,3.76-1.58c1.06-1.1,1.58-2.37,1.58-3.81c0-1.46-0.53-2.73-1.58-3.81c-1.04-1.07-2.28-1.59-3.76-1.59
					c-1.5,0-2.75,0.52-3.77,1.59C629.98,1057.97,629.46,1059.24,629.46,1060.7z"/>
				<path class="st1" d="M660.5,1068.4h-3v-2.42h-0.07c-1.33,1.98-3.1,2.95-5.3,2.95c-2.29,0-4.11-0.8-5.48-2.41
					c-1.33-1.62-1.98-3.59-1.98-5.96c0-2.24,0.68-4.12,2.02-5.69c1.36-1.62,3.14-2.41,5.33-2.41c2.23,0,4.04,1,5.41,3.03h0.07v-2.57
					h3V1068.4z M652.6,1066.28c1.57,0,2.81-0.54,3.71-1.61c0.9-1.11,1.35-2.45,1.35-4.01c0-1.55-0.45-2.86-1.35-3.95
					c-0.9-1.07-2.14-1.62-3.71-1.62c-1.49,0-2.7,0.55-3.6,1.67c-0.89,1.08-1.33,2.38-1.33,3.9c0,1.56,0.44,2.88,1.33,3.97
					C649.9,1065.74,651.11,1066.28,652.6,1066.28z"/>
				<path class="st1" d="M676.05,1065.98h-0.07c-0.62,0.95-1.4,1.67-2.32,2.18c-0.91,0.52-1.91,0.77-2.98,0.77
					c-2.32,0-4.13-0.8-5.47-2.41c-1.34-1.62-1.99-3.59-1.99-5.96c0-2.24,0.67-4.12,2.04-5.69c1.35-1.62,3.11-2.41,5.29-2.41
					c2.25,0,4.06,1,5.44,3.03h0.07v-15.82h3v28.73h-3V1065.98z M671.15,1066.28c1.58,0,2.81-0.54,3.7-1.61
					c0.92-1.11,1.36-2.45,1.36-4.01c0-1.55-0.45-2.86-1.36-3.95c-0.89-1.07-2.12-1.62-3.7-1.62c-1.5,0-2.69,0.55-3.61,1.67
					c-0.88,1.08-1.32,2.38-1.32,3.9c0,1.56,0.44,2.88,1.32,3.97C668.46,1065.74,669.65,1066.28,671.15,1066.28z"/>
				<path class="st1" d="M687.65,1067.02c0,0.53-0.18,0.99-0.56,1.36c-0.38,0.37-0.84,0.55-1.38,0.55c-0.52,0-1-0.19-1.37-0.55
					c-0.37-0.37-0.57-0.83-0.57-1.36c0-0.51,0.2-0.96,0.57-1.35c0.37-0.37,0.85-0.56,1.37-0.56c0.53,0,1,0.19,1.38,0.56
					C687.47,1066.05,687.65,1066.51,687.65,1067.02z"/>
				<path class="st1" d="M704.05,1057.32c-1.24-1.39-2.74-2.1-4.47-2.1c-1.45,0-2.67,0.56-3.69,1.64c-1,1.09-1.5,2.38-1.5,3.8
					c0,1.62,0.5,2.91,1.5,3.93c1.04,1.04,2.33,1.57,3.88,1.57c1.61,0,3.04-0.7,4.28-2.07v3.81c-1.29,0.69-2.72,1.02-4.29,1.02
					c-2.31,0-4.3-0.77-5.94-2.35c-1.63-1.55-2.43-3.47-2.43-5.79c0-2.38,0.81-4.36,2.43-5.96c1.62-1.58,3.65-2.37,6.1-2.37
					c1.61,0,2.99,0.33,4.14,1.02V1057.32z"/>
				<path class="st1" d="M708.3,1054.83c1.62-1.58,3.6-2.37,5.94-2.37c2.34,0,4.31,0.79,5.91,2.37c1.61,1.59,2.42,3.55,2.42,5.87
					s-0.8,4.27-2.42,5.86c-1.6,1.59-3.57,2.37-5.91,2.37c-2.33,0-4.31-0.78-5.94-2.37c-1.6-1.59-2.41-3.54-2.41-5.86
					S706.7,1056.42,708.3,1054.83z M708.9,1060.7c0,1.43,0.5,2.7,1.56,3.81c1.02,1.06,2.28,1.58,3.77,1.58
					c1.46,0,2.73-0.53,3.77-1.58c1.04-1.1,1.56-2.37,1.56-3.81c0-1.46-0.53-2.73-1.56-3.81c-1.04-1.07-2.31-1.59-3.77-1.59
					c-1.5,0-2.75,0.52-3.77,1.59C709.4,1057.97,708.9,1059.24,708.9,1060.7z"/>
				<path class="st1" d="M728.21,1054.87h0.08c0.43-0.72,1.02-1.29,1.78-1.76c0.74-0.43,1.53-0.65,2.35-0.65
					c1.95,0,3.45,0.9,4.5,2.73c0.48-0.83,1.16-1.5,2.02-2c0.84-0.5,1.79-0.73,2.78-0.73c3.46,0,5.17,2.22,5.17,6.68v9.26h-3v-8.77
					c0-0.39-0.02-0.8-0.05-1.18c-0.04-0.38-0.09-0.75-0.19-1.13c-0.09-0.35-0.22-0.68-0.41-1c-0.17-0.3-0.42-0.58-0.72-0.83
					c-0.4-0.26-0.91-0.39-1.53-0.39c-0.63,0-1.16,0.13-1.59,0.39c-0.43,0.25-0.76,0.57-0.99,0.92c-0.25,0.35-0.43,0.84-0.56,1.37
					c-0.12,0.54-0.21,1.05-0.25,1.5c-0.02,0.43-0.05,0.95-0.05,1.51v7.62h-3.01v-8.2c0-0.53,0-0.96-0.03-1.31
					c-0.02-0.37-0.09-0.8-0.2-1.35c-0.11-0.57-0.25-0.98-0.43-1.25c-0.18-0.3-0.45-0.58-0.83-0.83c-0.38-0.24-0.84-0.36-1.37-0.36
					c-1.54,0-2.52,0.67-2.96,1.99c-0.21,0.61-0.34,1.21-0.41,1.74c-0.06,0.56-0.09,1.21-0.09,1.96v7.62h-3v-15.49h3V1054.87z"/>
			</g>
			<g>
				<g>
					<path class="st1" d="M209.16,1059.27c14.16,0,28.32,0,42.48,0c1.29,0,1.29-1.99,0-1.99c-14.16,0-28.32,0-42.48,0
						C207.88,1057.29,207.88,1059.27,209.16,1059.27L209.16,1059.27z"/>
				</g>
				<g>
					<path class="st1" d="M774.36,1059.27c14.15,0,28.31,0,42.47,0c1.3,0,1.3-1.99,0-1.99c-14.15,0-28.32,0-42.47,0
						C773.08,1057.29,773.08,1059.27,774.36,1059.27L774.36,1059.27z"/>
				</g>
			</g>
		</g>
	</g>
	<rect y="1.5" class="st2" width="1024" height="1021"/>
</g>
<g id="Layer_2">
	<g>
		<path class="st3" d="M189.02,678.04l-31.45-44.5v43.67h-7.89v-60.87H153l30.62,42.09v-42.09h7.89v61.7H189.02z"/>
		<path class="st3" d="M238.55,677.21l-4.2-12.84h-22.64l-4.49,12.84h-9.31l24.72-61.7h2.2l22.93,61.7H238.55z M223.34,631.46
			l-9.43,26.8h18.07L223.34,631.46z"/>
		<path class="st3" d="M254.17,677.21v-60.87h8.31v53.39h27.51v7.48H254.17z"/>
		<path class="st3" d="M305.57,623.82v16.91h20.11v7.06h-20.11v21.94h27.59v7.48h-35.9v-60.87h36.36v7.48H305.57z"/>
		<path class="st3" d="M355.09,677.21h-12.26v-60.87c7.81-0.28,12.81-0.42,15-0.42c8.5,0,15.23,2.58,20.19,7.75
			c4.96,5.17,7.44,12.04,7.44,20.63C385.46,666.24,375.34,677.21,355.09,677.21z M351.14,623.82v45.5c1.86,0.28,4.16,0.42,6.9,0.42
			c5.82,0,10.39-2.18,13.71-6.54c3.32-4.36,4.99-10.42,4.99-18.18c0-14.4-6.47-21.61-19.4-21.61
			C356.56,623.4,354.5,623.54,351.14,623.82z"/>
		<path class="st3" d="M396.47,677.21v-60.87h8.31v60.87H396.47z"/>
		<path class="st3" d="M465.03,649.95v27.26h-8.31v-27.26l-19.61-33.61h8.56l15.17,26.59L476,616.34h8.56L465.03,649.95z"/>
		<path class="st3" d="M516.84,677.21l-4.2-12.84H490l-4.49,12.84h-9.31l24.72-61.7h2.2l22.93,61.7H516.84z M501.63,631.46
			l-9.43,26.8h18.07L501.63,631.46z"/>
		<path class="st3" d="M570.77,677.21H553.4v-60.87c7.4-0.36,12.73-0.54,16-0.54c6.01,0,10.66,1.3,13.96,3.89
			c3.3,2.59,4.94,6.29,4.94,11.11c0,2.83-1.05,5.4-3.16,7.73c-2.11,2.33-4.43,3.78-6.98,4.36c4.82,1.16,8.33,3.09,10.53,5.78
			c2.2,2.69,3.3,6.34,3.3,10.97c0,5.35-1.96,9.61-5.88,12.8C582.2,675.61,577.09,677.21,570.77,677.21z M561.71,622.98v17.49
			c1.75,0.17,3.91,0.25,6.48,0.25c7.87,0,11.8-3.2,11.8-9.6c0-5.62-3.61-8.43-10.84-8.43C566.38,622.69,563.9,622.79,561.71,622.98z
			 M561.71,646.92v23.23c2.85,0.28,5.04,0.42,6.56,0.42c5.21,0,9.01-0.98,11.4-2.93c2.4-1.95,3.59-5.06,3.59-9.33
			c0-3.96-1.14-6.88-3.43-8.77c-2.28-1.88-6.1-2.83-11.45-2.83L561.71,646.92z"/>
		<path class="st3" d="M598.65,646.25c0-8.81,2.21-16.18,6.63-22.1c4.42-5.93,10.38-8.89,17.89-8.89c8.45,0,14.92,2.73,19.42,8.18
			c4.5,5.46,6.75,13.06,6.75,22.81c0,10-2.26,17.83-6.77,23.5c-4.52,5.67-10.98,8.5-19.4,8.5c-7.67,0-13.68-2.99-18.01-8.97
			C600.82,663.29,598.65,655.61,598.65,646.25z M607.38,646.25c0,6.98,1.38,12.81,4.13,17.49c2.76,4.68,6.64,7.02,11.65,7.02
			c5.68,0,10.01-2.15,12.98-6.44c2.98-4.29,4.47-10.32,4.47-18.07c0-15.68-5.82-23.52-17.45-23.52c-5.15,0-9.07,2.11-11.76,6.32
			C608.72,633.26,607.38,639,607.38,646.25z"/>
		<path class="st3" d="M660.35,677.21v-60.87h8.31v60.87H660.35z"/>
		<path class="st3" d="M704.76,623.82v53.39h-8.31v-53.39h-19.36v-7.48H725v7.48H704.76z"/>
		<path class="st3" d="M740.29,623.82v16.91h20.11v7.06h-20.11v21.94h27.59v7.48h-35.9v-60.87h36.35v7.48H740.29z"/>
		<path class="st3" d="M811.13,677.21l-17.16-28l-8.1,11.51v16.49h-8.31v-60.87h8.31v33.11l22.6-33.11h9.27l-18.2,26.38l20.77,34.49
			H811.13z"/>
		<path class="st3" d="M823.64,646.25c0-8.81,2.21-16.18,6.63-22.1c4.42-5.93,10.38-8.89,17.89-8.89c8.45,0,14.92,2.73,19.42,8.18
			c4.5,5.46,6.75,13.06,6.75,22.81c0,10-2.26,17.83-6.77,23.5c-4.52,5.67-10.98,8.5-19.4,8.5c-7.67,0-13.68-2.99-18.01-8.97
			C825.8,663.29,823.64,655.61,823.64,646.25z M832.36,646.25c0,6.98,1.38,12.81,4.13,17.49c2.76,4.68,6.64,7.02,11.65,7.02
			c5.68,0,10.01-2.15,12.98-6.44c2.98-4.29,4.47-10.32,4.47-18.07c0-15.68-5.82-23.52-17.45-23.52c-5.15,0-9.07,2.11-11.76,6.32
			C833.7,633.26,832.36,639,832.36,646.25z"/>
	</g>
	<g>
		<g>
			<path class="st3" d="M379.68,547.79h31.82l11.02-52.12c0.95-4.51,1.91-9.03,2.86-13.51c-14.67,14.99-28.62,30.68-41.75,47.03
				L379.68,547.79z"/>
			<path class="st3" d="M550.33,382.66c-12.41,7.58-24.56,15.6-36.42,24l-5.69,26.83c-5.75,27.09-12.09,56.34-14.54,75.31h-0.45
				c-1.93-12.72-10.09-42.08-18.81-71.82c-8.56,7.11-16.94,14.43-25.13,21.97c8.14,30.26,18.9,67.69,25.03,88.83h41.26l35.03-165.13
				H550.33z"/>
			<path class="st3" d="M660.66,463.78c19.04-6.24,29.25-21.76,29.25-40.08c0-23.17-15.9-41.03-48.94-41.03h-62.96l-35.02,165.13
				H617c38.61,0,64.64-18.22,64.64-51.58C681.64,481.3,672.02,468.48,660.66,463.78z M614.37,521.59h-32.58l9.88-46.93h26.78
				c20.25,0,27.76,8.02,27.73,21.3C646.15,513.2,632.67,521.59,614.37,521.59z M626.02,448.46h-28.77l8.29-39.6h27.64
				c10.87,0,22.08,3.45,22.08,18.03C655.26,442.49,642.72,448.46,626.02,448.46z"/>
		</g>
		<g>
			<g>
				<path class="st4" d="M554.1,373.7h-41.72c-28.62,21.33-55.69,44.67-80.42,70.38c-35.02,36.4-65.32,77.67-87.79,122.83
					C398.54,487.91,470.94,421.43,554.1,373.7z"/>
				<g>
					<path class="st4" d="M461.02,393.24h18.72h7.58c8.2-6.7,16.56-13.21,25.06-19.55h-38.82l-26.22-82.93l-26.22,82.93h-87.02
						l70.38,52.63l-14.79,46.76c7.89-11.94,18.14-27.44,25.58-38.69c5.74-8.69,9.81-14.84,9.81-14.84l-14.88-11.33l-19.66-14.98
						h24.4h18.72l6.16-19.55l7.53-23.89l7.53,23.89L461.02,393.24z"/>
				</g>
			</g>
		</g>
	</g>
</g>
</svg>
